Simulation
nRows=45
nColumns=15
endheader
time  TH_x TH_y TH_z SC_y  SC_z  SC_x  AC_y  AC_z  AC_x  GH_y  GH_z  GH_yy  EL_x  PS_y
0.0  0.000000  0.000000  0.000000  -28.103720619308728  -0.9360644811569505  6.40318589514824  55.194853618841684  0.7828911305263189  -8.68819446418587  17.937970518343835  5.6698262329561615  23.581321248183173  26.93304891171643  0.000000
0.039  0.000000  0.000000  0.000000  -27.786777208835836  -0.47618632615639667  6.191302173807421  54.84827894748784  1.2065771172586506  -8.44744347423594  18.37271640336292  5.845054535868304  23.077125447527422  26.396465369032736  0.000000
0.078  0.000000  0.000000  0.000000  -27.363269824626446  -0.16945587873409387  5.876717250256092  54.477873314827555  1.407273861798938  -8.226775666262345  19.31276360248372  5.896482517697321  22.05006429281306  25.766013552813078  0.000000
0.11699999999999999  0.000000  0.000000  0.000000  -27.11566554947313  0.0828012413423653  5.564267944304568  54.212746845739275  1.468028234656755  -7.96950732109933  21.0491035216365  5.95262825258394  20.1425249377782  25.303359283256377  0.000000
0.156  0.000000  0.000000  0.000000  -26.961220400076353  0.2679863571297346  5.31698933634735  54.10731740439645  1.4737547272845724  -7.692588112905971  23.11656960978115  6.123599646183824  17.794261192848925  24.985426939913435  0.000000
0.195  0.000000  0.000000  0.000000  -26.921672328070898  0.40744678373396187  5.159090639855335  54.188638553987126  1.4590772650038202  -7.381863275920807  25.26832940834508  6.516927778319119  15.21684765205268  24.777769483593037  0.000000
0.23399999999999999  0.000000  0.000000  0.000000  -26.96000645911389  0.5047622030577884  5.079464819629517  54.41853775991151  1.4692636223450597  -7.0394438131975585  27.451156275549643  7.183044943671904  12.393853576369269  24.669524728348524  0.000000
0.273  0.000000  0.000000  0.000000  -27.063558764669963  0.5667027860912628  5.064980987775775  54.800500871350216  1.5242810720274689  -6.6623649909959255  29.634715299463064  8.158436562350817  9.36092232011014  24.633327057307127  0.000000
0.312  0.000000  0.000000  0.000000  -27.201386709820444  0.5985410273181474  5.095149751876281  55.29267794160139  1.648716712584492  -6.255414908377856  31.809988307169153  9.436349559936932  6.119423353140064  24.66608092289535  0.000000
0.351  0.000000  0.000000  0.000000  -27.363008720967056  0.606871792215738  5.1499394176044335  55.88219875957764  1.8543459896213794  -5.821002432684219  33.951829214254346  11.003612291843009  2.7145718011059623  24.74017659456225  0.000000
0.39  0.000000  0.000000  0.000000  -27.528180878056205  0.5966719264942202  5.210910805742797  56.5338797093352  2.1575761921663297  -5.36806120791959  36.02147802292451  12.828852228669517  -0.7994563109050283  24.85020957083196  0.000000
0.429  0.000000  0.000000  0.000000  -27.68402143517666  0.5747617685881077  5.26709807757971  57.227646466830876  2.563339694022443  -4.90568476787961  37.97687960846351  14.881452725115862  -4.353119983056825  24.97095235228843  0.000000
0.46799999999999997  0.000000  0.000000  0.000000  -27.81448077864399  0.5456017979926812  5.3157678343755945  57.931136729413076  3.0774485158920886  -4.452513561024509  39.77847052242314  17.127594800264514  -7.881817566011576  25.094062451626094  0.000000
0.507  0.000000  0.000000  0.000000  -27.909459422048563  0.5225652785380236  5.366561651279573  58.62073741121931  3.6936370264622167  -4.022743800853549  41.39774585683522  19.5333104818051  -11.326070305282283  25.19989458973474  0.000000
0.546  0.000000  0.000000  0.000000  -27.96129077665589  0.5212243626357616  5.45769431119668  59.273139457491276  4.376814588150499  -3.6387298610703476  42.82193241338287  22.06110085904467  -14.64023443459578  25.2793709666132  0.000000
0.585  0.000000  0.000000  0.000000  -27.969994129668322  0.5521877263328294  5.618700015338632  59.87946551541484  5.083746144748394  -3.305529242948054  44.04048584107682  24.66852129435837  -17.77288626994122  25.318325107312837  0.000000
0.624  0.000000  0.000000  0.000000  -27.938617983610644  0.6293930308675589  5.8528805113044235  60.42940128391333  5.787713749618031  -3.0088745150572964  45.070282944550414  27.311869662381604  -20.710484926833598  25.31728594347133  0.000000
0.663  0.000000  0.000000  0.000000  -27.87881687500195  0.766245008658404  6.157512156614755  60.92176618925719  6.466707917435281  -2.727729498249441  45.927711738386876  29.954821856236496  -23.440117613532  25.280948361122757  0.000000
0.702  0.000000  0.000000  0.000000  -27.806155059341304  0.9677132332082881  6.525640755893278  61.357250075291745  7.1063717509884095  -2.443238250324864  46.638072341318356  32.57052343993254  -25.95962940367119  25.219427574348014  0.000000
0.741  0.000000  0.000000  0.000000  -27.73059753481209  1.2332982502283287  6.947630128709654  61.740095152908275  7.695585179712146  -2.142095057217312  47.222844980195404  35.14126233958722  -28.26654559895304  25.140672352922092  0.000000
0.78  0.000000  0.000000  0.000000  -27.665946150611756  1.559241933988565  7.4137587146395685  62.071913657279175  8.230174349178235  -1.8152824777215357  47.703322482688804  37.650938384801606  -30.361679680717714  25.055699096493754  0.000000
0.819  0.000000  0.000000  0.000000  -27.627266785439517  1.9404681690181524  7.914995158522858  62.35856078202969  8.710702411667313  -1.4585048631309279  48.08859359973192  40.08372390885397  -32.240626214608916  24.974312560526855  0.000000
0.858  0.000000  0.000000  0.000000  -27.62689153868973  2.3674204461633264  8.442096803974618  62.60574500380243  9.145117791930135  -1.0707039123856148  48.383564336659845  42.42306651248264  -33.90227848728867  24.903410064764696  0.000000
0.897  0.000000  0.000000  0.000000  -27.669621264666837  2.828436886109905  8.985488336912704  62.8187989576184  9.542510357560419  -0.6545874136017378  48.586101952070294  44.6554256325296  -35.349873851889846  24.844015847473415  0.000000
0.9359999999999999  0.000000  0.000000  0.000000  -27.758185297909513  3.313756918265435  9.522806770493201  63.00152022181714  9.928717262578518  -0.20562686419347972  48.69650153874754  46.76791036800826  -36.595868645576466  24.794207479550174  0.000000
0.975  0.000000  0.000000  0.000000  -27.89378268078673  3.819628558262367  10.035323259602936  63.158674997677295  10.328346604474145  0.2860431726313473  48.72104114311685  48.75249895270836  -37.661738614873684  24.74741058169792  0.000000
1.014  0.000000  0.000000  0.000000  -28.07843024358851  4.346334414714307  10.529125205898563  63.293803511112664  10.744299325927345  0.8223129188012417  48.67524174848132  50.60519011432068  -38.573737291387324  24.701834328581246  0.000000
1.053  0.000000  0.000000  0.000000  -28.314020100811625  4.8927063182393535  11.013485527833707  63.41073159495498  11.169810221772964  1.399823610910639  48.57532321685215  52.325621599054614  -39.355597797444084  24.657621609700573  0.000000
1.092  0.000000  0.000000  0.000000  -28.599956401327834  5.45722665545362  11.488763601009852  63.50735027457945  11.602123967846245  2.0150494115660194  48.43654559539038  53.91341518369563  -40.032190325808365  24.60661926921701  0.000000
1.131  0.000000  0.000000  0.000000  -28.929656981268344  6.035458029138274  11.957535124883522  63.58096524865901  12.035881452308033  2.660332132615338  48.26673885660773  55.36608244571308  -40.62123399678834  24.544088829193445  0.000000
1.17  0.000000  0.000000  0.000000  -29.29060631225212  6.620377629061906  12.419963161441785  63.62946007607119  12.471308431432982  3.3265824619486053  48.07048283740071  56.6810308371071  -41.13498544901608  24.46623931748564  0.000000
1.209  0.000000  0.000000  0.000000  -29.670113753945724  7.202137198508049  12.879625789773037  63.652011138099354  12.905325184999526  4.004166600880783  47.85164250954167  57.85739280817624  -41.58029605157145  24.37008822190075  0.000000
1.248  0.000000  0.000000  0.000000  -30.056410009329074  7.769056166909273  13.332562698764969  63.647018852920155  13.343321343555225  4.683569198347936  47.61576825045105  58.899215226017766  -41.961327072222424  24.253115040631137  0.000000
1.287  0.000000  0.000000  0.000000  -30.433423531701088  8.315967060422837  13.766655879081554  63.61256611274063  13.7923537282684  5.363757321715203  47.366685610757735  59.81466175264071  -42.279398677438145  24.108742054948692  0.000000
1.326  0.000000  0.000000  0.000000  -30.793300909588833  8.839282600321129  14.180452460466954  63.551115138757325  14.247869681840044  6.042033932470899  47.10781199234128  60.615023811472454  -42.538492743385284  23.932059015751204  0.000000
1.365  0.000000  0.000000  0.000000  -31.13751174465465  9.331711605237249  14.577202779909555  63.46964069856305  14.712856011627105  6.715688598969269  46.84152088403747  61.304811111618385  -42.73905169623879  23.72255174523663  0.000000
1.404  0.000000  0.000000  0.000000  -31.464719230231495  9.781603807394387  14.980402292535864  63.37641248867995  15.168339591043354  7.36564296826339  46.57560665815939  61.887892673742044  -42.88420131643478  23.4775937437789  0.000000
1.443  0.000000  0.000000  0.000000  -31.765871451516183  10.178290655373099  15.403267410561593  63.28090576717189  15.577014381667771  7.964113337045202  46.32554527473745  62.37531399831207  -42.97961161583935  23.20078210271915  0.000000
1.482  0.000000  0.000000  0.000000  -32.03632176037845  10.521066785549726  15.826815259160984  63.18673721706916  15.922026828239499  8.496212670246315  46.10979917345333  62.776073927940615  -43.029263077293656  22.906728899527334  0.000000
1.521  0.000000  0.000000  0.000000  -32.276839589747155  10.80772984000364  16.230517968290922  63.10112345185391  16.20009547562127  8.953306631564729  45.94029768857768  63.091085917892556  -43.03633519599119  22.612827973128496  0.000000
1.56  0.000000  0.000000  0.000000  -32.49054097012298  11.03527356849931  16.596515249588627  63.033800768537986  16.412498410245973  9.32582803798255  45.82288198178364  63.321591758727074  -43.00677879425855  22.33348803440485  0.000000
1.599  0.000000  0.000000  0.000000  -32.68084237722206  11.202693981440218  16.90977377963148  62.99354746009131  16.558402397402332  9.606333822581831  45.76078634815814  63.46654294245482  -42.94352112967756  22.088032053571947  0.000000
1.638  0.000000  0.000000  0.000000  -32.850299714027365  11.310480405869509  17.151621627531778  62.98584300289358  16.640283800486575  9.78719141368727  45.753073545413386  63.526114542859126  -42.85089067794237  21.891834050663693  0.000000
1.677  0.000000  0.000000  0.000000  -32.99611630664544  11.359980139975672  17.304659581170874  63.01100443339399  16.66047804799952  9.866234599103278  45.79267201047772  63.49523163319448  -42.73018350478166  21.753967893212614  0.000000
1.716  0.000000  0.000000  0.000000  -33.11654774306867  11.351766333138787  17.35578618207542  63.06712436140419  16.624278479856006  9.84153960799587  45.87165776605284  63.36634562188355  -42.57865149201726  21.682639649235544  0.000000
